<svg viewBox="0 0 1200 800" xmlns="http://www.w3.org/2000/svg">
  <!-- Background -->
  <defs>
    <linearGradient id="bgGradient" x1="0%" y1="0%" x2="100%" y2="100%">
      <stop offset="0%" style="stop-color:#667eea;stop-opacity:1" />
      <stop offset="100%" style="stop-color:#764ba2;stop-opacity:1" />
    </linearGradient>
    <linearGradient id="serverlessGradient" x1="0%" y1="0%" x2="100%" y2="100%">
      <stop offset="0%" style="stop-color:#f39c12;stop-opacity:0.1" />
      <stop offset="100%" style="stop-color:#e67e22;stop-opacity:0.1" />
    </linearGradient>
    <linearGradient id="containerGradient" x1="0%" y1="0%" x2="100%" y2="100%">
      <stop offset="0%" style="stop-color:#27ae60;stop-opacity:0.1" />
      <stop offset="100%" style="stop-color:#2ecc71;stop-opacity:0.1" />
    </linearGradient>
  </defs>
  
  <rect width="1200" height="800" fill="url(#bgGradient)"/>
  
  <!-- Title -->
  <text x="600" y="40" text-anchor="middle" fill="white" font-size="28" font-weight="bold">Shopping Cart - Complete Architecture Options</text>
  
  <!-- Shared Frontend Layer -->
  <rect x="50" y="80" width="1100" height="120" fill="rgba(255,255,255,0.9)" rx="10" stroke="#3498db" stroke-width="2"/>
  <text x="600" y="105" text-anchor="middle" fill="#2c3e50" font-size="18" font-weight="bold">Shared Frontend Layer</text>
  
  <!-- Internet Users -->
  <rect x="100" y="120" width="140" height="40" fill="#6c5ce7" rx="20"/>
  <text x="170" y="145" text-anchor="middle" fill="white" font-size="14" font-weight="bold">Internet Users</text>
  
  <!-- CloudFront CDN -->
  <rect x="280" y="120" width="140" height="40" fill="#fd7915" rx="8"/>
  <text x="350" y="145" text-anchor="middle" fill="white" font-size="14" font-weight="bold">CloudFront CDN</text>
  
  <!-- React App -->
  <rect x="470" y="120" width="170" height="40" fill="#fd7915" rx="8"/>
  <text x="560" y="145" text-anchor="middle" fill="white" font-size="14" font-weight="bold">React App (Amplify/S3)</text>
  
  <!-- Arrows -->
  <path d="M240 140 L270 140" stroke="#2c3e50" stroke-width="2" marker-end="url(#arrowhead)"/>
  <path d="M420 140 L450 140" stroke="#2c3e50" stroke-width="2" marker-end="url(#arrowhead)"/>
  
  <!-- Architecture Split -->
  <!-- Option A: Serverless -->
  <rect x="50" y="220" width="550" height="320" fill="url(#serverlessGradient)" rx="15" stroke="#f39c12" stroke-width="3"/>
  <text x="325" y="250" text-anchor="middle" fill="#2c3e50" font-size="20" font-weight="bold">Option A: Serverless</text>
  
  <!-- API Gateway -->
  <rect x="80" y="280" width="160" height="40" fill="#fd7915" rx="8"/>
  <text x="160" y="305" text-anchor="middle" fill="white" font-size="12" font-weight="bold">API Gateway (Serverless)</text>
  
  <!-- Lambda Functions -->
  <rect x="70" y="340" width="80" height="35" fill="#fd7915" rx="6"/>
  <text x="110" y="360" text-anchor="middle" fill="white" font-size="10">Categories Service</text>
  
  <rect x="160" y="340" width="80" height="35" fill="#fd7915" rx="6"/>
  <text x="200" y="360" text-anchor="middle" fill="white" font-size="10">Products Service</text>
  
  <rect x="250" y="340" width="80" height="35" fill="#fd7915" rx="6"/>
  <text x="290" y="360" text-anchor="middle" fill="white" font-size="10">Orders Service</text>
  
  <rect x="340" y="340" width="80" height="35" fill="#fd7915" rx="6"/>
  <text x="380" y="360" text-anchor="middle" fill="white" font-size="10">Search Service</text>
  
  <!-- DynamoDB -->
  <rect x="150" y="420" width="180" height="40" fill="#3498db" rx="8"/>
  <text x="240" y="445" text-anchor="middle" fill="white" font-size="12" font-weight="bold">DynamoDB Tables</text>
  
  <!-- CloudWatch -->
  <rect x="380" y="480" width="180" height="40" fill="#2c3e50" rx="8"/>
  <text x="470" y="505" text-anchor="middle" fill="white" font-size="12" font-weight="bold">CloudWatch + X-Ray</text>
  
  <!-- Option B: Containerized -->
  <rect x="620" y="220" width="550" height="480" fill="url(#containerGradient)" rx="15" stroke="#27ae60" stroke-width="3"/>
  <text x="895" y="250" text-anchor="middle" fill="#2c3e50" font-size="20" font-weight="bold">Option B: Containerized</text>
  
  <!-- Application Load Balancer -->
  <rect x="650" y="280" width="180" height="40" fill="#fd7915" rx="8"/>
  <text x="740" y="305" text-anchor="middle" fill="white" font-size="12" font-weight="bold">Application Load Balancer</text>
  
  <!-- ECS Fargate Cluster -->
  <text x="945" y="340" text-anchor="middle" fill="#2c3e50" font-size="14" font-weight="bold">ECS Fargate Cluster</text>
  
  <!-- .NET Web API -->
  <rect x="660" y="360" width="140" height="70" fill="#6c5ce7" rx="8"/>
  <text x="730" y="380" text-anchor="middle" fill="white" font-size="11" font-weight="bold">.NET 8 Web API</text>
  <text x="730" y="395" text-anchor="middle" fill="white" font-size="9">ASP.NET Core</text>
  <text x="730" y="405" text-anchor="middle" fill="white" font-size="9">• Products CRUD • Swagger UI</text>
  <text x="730" y="415" text-anchor="middle" fill="white" font-size="9">• Health Checks</text>
  
  <!-- Node.js Search -->
  <rect x="820" y="360" width="140" height="70" fill="#27ae60" rx="8"/>
  <text x="890" y="380" text-anchor="middle" fill="white" font-size="11" font-weight="bold">Node.js Search</text>
  <text x="890" y="395" text-anchor="middle" fill="white" font-size="9">Express</text>
  <text x="890" y="405" text-anchor="middle" fill="white" font-size="9">• Orders API • Advanced Search</text>
  <text x="890" y="415" text-anchor="middle" fill="white" font-size="9">• Real-time Results</text>
  
  <!-- Database Layer -->
  <text x="945" y="460" text-anchor="middle" fill="#2c3e50" font-size="14" font-weight="bold">Database Layer</text>
  
  <!-- PostgreSQL RDS -->
  <rect x="660" y="480" width="140" height="60" fill="#3498db" rx="8"/>
  <text x="730" y="505" text-anchor="middle" fill="white" font-size="11" font-weight="bold">PostgreSQL RDS</text>
  <text x="730" y="515" text-anchor="middle" fill="white" font-size="9">• Product Catalog • ACID</text>
  <text x="730" y="525" text-anchor="middle" fill="white" font-size="9">• Backups • Multi-AZ</text>
  
  <!-- Elasticsearch -->
  <rect x="820" y="480" width="140" height="60" fill="#fd7915" rx="8"/>
  <text x="890" y="505" text-anchor="middle" fill="white" font-size="11" font-weight="bold">Elasticsearch</text>
  <text x="890" y="515" text-anchor="middle" fill="white" font-size="9">• Aggregations • Advanced Search </text>
  <text x="890" y="525" text-anchor="middle" fill="white" font-size="9">• Analytics</text>
  
  <!-- CloudWatch -->
  <rect x="720" y="560" width="200" height="40" fill="#2c3e50" rx="8"/>
  <text x="820" y="585" text-anchor="middle" fill="white" font-size="12" font-weight="bold">CloudWatch + Application Insights</text>
  
  <!-- Architecture Comparison -->
  <rect x="50" y="720" width="1100" height="60" fill="rgba(255,255,255,0.95)" rx="10" stroke="#3498db" stroke-width="2"/>
  <text x="600" y="740" text-anchor="middle" fill="#2c3e50" font-size="16" font-weight="bold">Architecture Comparison</text>
  
  <text x="100" y="760" fill="#2c3e50" font-size="12"><tspan font-weight="bold">Serverless (Lambda):</tspan> $1-5/month • Auto (0-1000+) • Zero • DynamoDB (NoSQL) • Variable traffic, MVP</text>
  <text x="680" y="760" fill="#2c3e50" font-size="12"><tspan font-weight="bold">Containerized (.NET + Node.js):</tspan> $30-50/month • Manual/Auto (1-10+) • Moderate • PostgreSQL + Elasticsearch • Enterprise, consistent load</text>
  
  <!-- Arrows and connections -->
  <defs>
    <marker id="arrowhead" markerWidth="10" markerHeight="7" refX="0" refY="3.5" orient="auto">
      <polygon points="0 0, 10 3.5, 0 7" fill="#2c3e50"/>
    </marker>
  </defs>
  
  <!-- Connection arrows -->
  <path d="M530 160 L160 270" stroke="#f39c12" stroke-width="3" marker-end="url(#arrowhead)"/>
  <path d="M530 160 L740 270" stroke="#27ae60" stroke-width="3" marker-end="url(#arrowhead)"/>
  
  <!-- Internal connections -->
  <path d="M160 320 L110 340" stroke="#2c3e50" stroke-width="2"/>
  <path d="M160 320 L200 340" stroke="#2c3e50" stroke-width="2"/>
  <path d="M160 320 L290 340" stroke="#2c3e50" stroke-width="2"/>
  <path d="M160 320 L380 340" stroke="#2c3e50" stroke-width="2"/>
  
  <path d="M240 380 L240 420" stroke="#2c3e50" stroke-width="2" marker-end="url(#arrowhead)"/>
  
  <path d="M740 320 L730 360" stroke="#2c3e50" stroke-width="2"/>
  <path d="M740 320 L890 360" stroke="#2c3e50" stroke-width="2"/>
  
  <path d="M730 410 L730 480" stroke="#2c3e50" stroke-width="2" marker-end="url(#arrowhead)"/>
  <path d="M890 410 L890 480" stroke="#2c3e50" stroke-width="2" marker-end="url(#arrowhead)"/>
  
  <!-- Technology Stack -->
  <text x="60" y="570" fill="#2c3e50" font-size="12" font-weight="bold">Technology Stack:</text>
  <text x="60" y="590" fill="#2c3e50" font-size="11">React 18 + TypeScript • Redux Toolkit • .NET 8 • Node.js • Express • GitHub Actions</text>
  <text x="60" y="605" fill="#2c3e50" font-size="11">AWS Services • CloudFormation • Docker • AWS SAM</text>
  
  <!-- Deployment Commands -->
  <text x="60" y="640" fill="#2c3e50" font-size="12" font-weight="bold">Deployment Commands:</text>
  <text x="60" y="660" fill="#f39c12" font-size="11" font-weight="bold">Serverless Deployment:</text>
  <text x="60" y="675" fill="#2c3e50" font-size="10">cd backend/serverless</text>
  <text x="60" y="685" fill="#2c3e50" font-size="10">sam deploy --stack-name shopping-cart</text>
  
  <text x="60" y="700" fill="#27ae60" font-size="11" font-weight="bold">Container Deployment:</text>
  <text x="240" y="675" fill="#2c3e50" font-size="10">cd infrastructure</text>
  <text x="240" y="685" fill="#2c3e50" font-size="10">./deploy-everything.sh</text>
  
 </svg>